<svg width="52" height="12" viewBox="0 0 52 12" fill="none" xmlns="http://www.w3.org/2000/svg">
<path d="M0.336758 5.45199C0.0341016 5.75465 0.0341016 6.24535 0.336758 6.54801L5.26883 11.4801C5.57148 11.7827 6.06219 11.7827 6.36484 11.4801C6.6675 11.1774 6.6675 10.6867 6.36484 10.3841L1.98078 6L6.36484 1.61594C6.6675 1.31328 6.6675 0.822579 6.36484 0.519923C6.06219 0.217266 5.57148 0.217266 5.26883 0.519923L0.336758 5.45199ZM51.5097 6.54801C51.8124 6.24535 51.8124 5.75465 51.5097 5.45199L46.5776 0.519923C46.275 0.217266 45.7843 0.217266 45.4816 0.519923C45.179 0.822579 45.179 1.31328 45.4816 1.61594L49.8657 6L45.4816 10.3841C45.179 10.6867 45.179 11.1774 45.4816 11.4801C45.7843 11.7827 46.275 11.7827 46.5776 11.4801L51.5097 6.54801ZM0.884766 6.775H50.9617V5.225H0.884766V6.775Z" fill="#3C3CC0" fill-opacity="0.51"/>
</svg>
